<svg xmlns="http://www.w3.org/2000/svg" width="1200" height="675" viewBox="0 0 1200 675">
  <rect width="1200" height="675" fill="#f4f6f8"/>
  <rect x="65" y="45" width="1070" height="585" rx="18" fill="#ffffff" stroke="#d8dee4" stroke-width="2"/>
  <rect x="65" y="45" width="1070" height="60" rx="18" fill="#20262e"/>
  <circle cx="100" cy="75" r="8" fill="#ff6b6b"/><circle cx="128" cy="75" r="8" fill="#ffd43b"/><circle cx="156" cy="75" r="8" fill="#51cf66"/>
  <text x="600" y="84" text-anchor="middle" fill="#ffffff" font-size="22" font-family="sans-serif">Task 02 · 한국어 다문서 회의록 산출물</text>
  <text x="1090" y="84" text-anchor="end" fill="#c9d1d9" font-size="15" font-family="sans-serif">근거 재구성 · 캡처 아님</text>
  <text x="105" y="155" fill="#18212b" font-size="34" font-weight="700" font-family="sans-serif">행사 종합 회의록</text>
  <text x="105" y="195" fill="#57606a" font-size="20" font-family="sans-serif">9개 입력 문서를 하나의 일관된 Markdown 보고서로 통합</text>
  <rect x="105" y="230" width="300" height="115" rx="12" fill="#eef6ff"/>
  <text x="130" y="270" fill="#0969da" font-size="20" font-weight="700" font-family="sans-serif">종합 회의록</text>
  <text x="130" y="310" fill="#24292f" font-size="27" font-weight="700" font-family="sans-serif">약 25 KB · 305행</text>
  <rect x="450" y="230" width="300" height="115" rx="12" fill="#f2fbf4"/>
  <text x="475" y="270" fill="#1a7f37" font-size="20" font-weight="700" font-family="sans-serif">Q&amp;A 중심 회의록</text>
  <text x="475" y="310" fill="#24292f" font-size="27" font-weight="700" font-family="sans-serif">약 11 KB · 243행</text>
  <rect x="795" y="230" width="300" height="115" rx="12" fill="#fff8e8"/>
  <text x="820" y="270" fill="#9a6700" font-size="20" font-weight="700" font-family="sans-serif">구조 보존</text>
  <text x="820" y="310" fill="#24292f" font-size="27" font-weight="700" font-family="sans-serif">8개 세션 · 11개 Q&amp;A</text>
  <text x="105" y="405" fill="#24292f" font-size="23" font-weight="700" font-family="sans-serif">완성된 문서 구성</text>
  <text x="125" y="450" fill="#57606a" font-size="21" font-family="sans-serif">✓ 행사 개요와 일정        ✓ 세션별 핵심 내용        ✓ 기술·활용 사례</text>
  <text x="125" y="490" fill="#57606a" font-size="21" font-family="sans-serif">✓ 질의응답 재구성          ✓ 결정사항·액션 아이템      ✓ 종합 인사이트</text>
  <rect x="105" y="535" width="990" height="55" rx="10" fill="#eaf5ee"/>
  <text x="600" y="570" text-anchor="middle" fill="#116329" font-size="22" font-weight="700" font-family="sans-serif">Solar Open 2가 실무 초안으로 활용 가능한 한국어 문서를 완성</text>
</svg>
