<svg xmlns="http://www.w3.org/2000/svg" width="1200" height="675" viewBox="0 0 1200 675">
  <rect width="1200" height="675" fill="#f4f7fb"/>
  <rect x="55" y="45" width="1090" height="585" rx="18" fill="#ffffff" stroke="#d8dee8" stroke-width="2"/>
  <text x="95" y="105" fill="#172b4d" font-size="30" font-weight="700" font-family="sans-serif">Task 06 · AAWS Solar Open 2 에이전트 평가</text>
  <text x="1105" y="105" text-anchor="end" fill="#9a6700" font-size="16" font-family="sans-serif">근거 재구성 · 캡처 아님</text>
  <text x="95" y="150" fill="#5e6c84" font-size="20" font-family="sans-serif">LangGraph / LangChain에서 역할별로 Solar Open 2를 연결</text>
  <rect x="95" y="195" width="310" height="160" rx="14" fill="#eef6ff"/>
  <text x="120" y="240" fill="#0969da" font-size="20" font-weight="700" font-family="sans-serif">Level 1 기준선</text>
  <text x="120" y="295" fill="#172b4d" font-size="42" font-weight="700" font-family="sans-serif">10 / 10</text>
  <text x="120" y="330" fill="#5e6c84" font-size="18" font-family="sans-serif">모든 실행에서 결과 생성</text>
  <rect x="445" y="195" width="310" height="160" rx="14" fill="#f2fbf4"/>
  <text x="470" y="240" fill="#1a7f37" font-size="20" font-weight="700" font-family="sans-serif">Solar 단독 역할</text>
  <text x="470" y="295" fill="#172b4d" font-size="42" font-weight="700" font-family="sans-serif">6 / 6</text>
  <text x="470" y="330" fill="#5e6c84" font-size="18" font-family="sans-serif">정상 종료</text>
  <rect x="795" y="195" width="310" height="160" rx="14" fill="#fff8e8"/>
  <text x="820" y="240" fill="#9a6700" font-size="20" font-weight="700" font-family="sans-serif">Level 2 AJAX</text>
  <text x="820" y="295" fill="#172b4d" font-size="31" font-weight="700" font-family="sans-serif">Value accuracy 1.0</text>
  <text x="820" y="330" fill="#5e6c84" font-size="18" font-family="sans-serif">조건별 1회 · Navigator 통과</text>
  <text x="95" y="420" fill="#172b4d" font-size="24" font-weight="700" font-family="sans-serif">역할별 관찰</text>
  <line x1="205" y1="478" x2="995" y2="478" stroke="#aab4c3" stroke-width="3"/>
  <circle cx="260" cy="478" r="28" fill="#6f42c1"/><text x="260" y="486" text-anchor="middle" fill="#fff" font-size="17" font-weight="700" font-family="sans-serif">S</text>
  <circle cx="600" cy="478" r="28" fill="#0969da"/><text x="600" y="486" text-anchor="middle" fill="#fff" font-size="17" font-weight="700" font-family="sans-serif">N</text>
  <circle cx="940" cy="478" r="28" fill="#1a7f37"/><text x="940" y="486" text-anchor="middle" fill="#fff" font-size="17" font-weight="700" font-family="sans-serif">C</text>
  <text x="260" y="535" text-anchor="middle" fill="#5e6c84" font-size="18" font-family="sans-serif">Supervisor</text>
  <text x="600" y="535" text-anchor="middle" fill="#172b4d" font-size="18" font-weight="700" font-family="sans-serif">Navigator · 강점 확인</text>
  <text x="940" y="535" text-anchor="middle" fill="#5e6c84" font-size="18" font-family="sans-serif">Coder · 보강 필요</text>
  <rect x="95" y="570" width="1010" height="38" rx="8" fill="#eaf5ee"/>
  <text x="600" y="596" text-anchor="middle" fill="#116329" font-size="19" font-weight="700" font-family="sans-serif">Solar Open 2가 실제 멀티에이전트 흐름에서 역할을 수행한 단일 관찰 사례</text>
</svg>
